{"asset":{"version":"2.0","generator":"Unreal Engine 4.27.0 glTF Exporter 1.0.6"},"scene":0,"accessors":[{"bufferView":0,"count":11370,"type":"SCALAR","componentType":5123},{"bufferView":1,"count":3818,"type":"VEC3","componentType":5126,"min":[-42.3077011,-26.3072262,-45.5028839],"max":[53.8924408,37.7565575,45.6544342]},{"bufferView":2,"count":3818,"type":"VEC3","componentType":5126},{"bufferView":3,"count":3818,"type":"VEC4","componentType":5126},{"bufferView":4,"count":3818,"type":"VEC2","componentType":5126},{"bufferView":5,"count":3818,"type":"VEC2","componentType":5126},{"bufferView":6,"count":3198,"type":"SCALAR","componentType":5123},{"bufferView":7,"count":1073,"type":"VEC3","componentType":5126,"min":[-53.6942482,-2.50496387,-24.7551956],"max":[-3.14845896,33.9793129,27.8921299]},{"bufferView":8,"count":1073,"type":"VEC3","componentType":5126},{"bufferView":9,"count":1073,"type":"VEC4","componentType":5126},{"bufferView":10,"count":1073,"type":"VEC2","componentType":5126},{"bufferView":11,"count":1073,"type":"VEC2","componentType":5126},{"bufferView":12,"count":432,"type":"SCALAR","componentType":5121},{"bufferView":13,"count":208,"type":"VEC3","componentType":5126,"min":[-36.44561,-37.8881187,-37.7677422],"max":[47.0164948,-25.7248955,36.4303246]},{"bufferView":14,"count":208,"type":"VEC3","componentType":5126},{"bufferView":15,"count":208,"type":"VEC4","componentType":5126},{"bufferView":16,"count":208,"type":"VEC2","componentType":5126},{"bufferView":17,"count":208,"type":"VEC2","componentType":5126}],"buffers":[{"uri":"SM_单人沙发_80cm.bin","byteLength":315112}],"bufferViews":[{"buffer":0,"byteLength":22740,"target":34963},{"buffer":0,"byteLength":45816,"byteOffset":22740,"target":34962},{"buffer":0,"byteLength":45816,"byteOffset":68556,"target":34962},{"buffer":0,"byteLength":61088,"byteOffset":114372,"target":34962},{"buffer":0,"byteLength":30544,"byteOffset":175460,"target":34962},{"buffer":0,"byteLength":30544,"byteOffset":206004,"target":34962},{"buffer":0,"byteLength":6396,"byteOffset":236548,"target":34963},{"buffer":0,"byteLength":12876,"byteOffset":242944,"target":34962},{"buffer":0,"byteLength":12876,"byteOffset":255820,"target":34962},{"buffer":0,"byteLength":17168,"byteOffset":268696,"target":34962},{"buffer":0,"byteLength":8584,"byteOffset":285864,"target":34962},{"buffer":0,"byteLength":8584,"byteOffset":294448,"target":34962},{"buffer":0,"byteLength":432,"byteOffset":303032,"target":34963},{"buffer":0,"byteLength":2496,"byteOffset":303464,"target":34962},{"buffer":0,"byteLength":2496,"byteOffset":305960,"target":34962},{"buffer":0,"byteLength":3328,"byteOffset":308456,"target":34962},{"buffer":0,"byteLength":1664,"byteOffset":311784,"target":34962},{"buffer":0,"byteLength":1664,"byteOffset":313448,"target":34962}],"images":[{"uri":"MI_布料02_Inst_2_BaseColor.jpg"},{"uri":"MI_BZ_RS_Inst_SM_单人沙发_80cm_BaseColor.jpg"},{"uri":"MI_JapanWood01_BaseColor.jpg"}],"materials":[{"name":"MI_布料02_Inst_2","pbrMetallicRoughness":{"baseColorTexture":{"index":0},"metallicFactor":0}},{"name":"MI_BZ_RS_Inst_SM_单人沙发_80cm","pbrMetallicRoughness":{"baseColorTexture":{"index":1,"texCoord":1},"metallicFactor":0,"roughnessFactor":0}},{"name":"MI_JapanWood01","pbrMetallicRoughness":{"baseColorTexture":{"index":2},"metallicFactor":0,"roughnessFactor":0.300543785}}],"meshes":[{"name":"SM_单人沙发_80cm","primitives":[{"attributes":{"POSITION":1,"NORMAL":2,"TANGENT":3,"TEXCOORD_0":4,"TEXCOORD_1":5},"indices":0,"material":0},{"attributes":{"POSITION":7,"NORMAL":8,"TANGENT":9,"TEXCOORD_0":10,"TEXCOORD_1":11},"indices":6,"material":1},{"attributes":{"POSITION":13,"NORMAL":14,"TANGENT":15,"TEXCOORD_0":16,"TEXCOORD_1":17},"indices":12,"material":2}]}],"nodes":[{"name":"SM_单人沙发_80cm_StaticMeshComponent0","mesh":0}],"samplers":[{"name":"MI_布料02_Inst_2_BaseColor","minFilter":9987,"magFilter":9729},{"name":"MI_BZ_RS_Inst_SM_单人沙发_80cm_BaseColor","minFilter":9987,"magFilter":9729},{"name":"MI_JapanWood01_BaseColor","minFilter":9987,"magFilter":9729}],"scenes":[{"name":"Main","nodes":[0]}],"textures":[{"name":"MI_布料02_Inst_2_BaseColor","sampler":0,"source":0},{"name":"MI_BZ_RS_Inst_SM_单人沙发_80cm_BaseColor","sampler":1,"source":1},{"name":"MI_JapanWood01_BaseColor","sampler":2,"source":2}]}