{"asset":{"version":"2.0","generator":"Unreal Engine 4.27.0 glTF Exporter 1.0.6"},"scene":0,"accessors":[{"bufferView":0,"count":11022,"type":"SCALAR","componentType":5123},{"bufferView":1,"count":4046,"type":"VEC3","componentType":5126,"min":[-175.212097,-27.2022667,-81.7039642],"max":[177.942993,37.0225182,81.699852]},{"bufferView":2,"count":4046,"type":"VEC3","componentType":5126},{"bufferView":3,"count":4046,"type":"VEC4","componentType":5126},{"bufferView":4,"count":4046,"type":"VEC2","componentType":5126},{"bufferView":5,"count":4046,"type":"VEC2","componentType":5126},{"bufferView":6,"count":2418,"type":"SCALAR","componentType":5123},{"bufferView":7,"count":898,"type":"VEC3","componentType":5126,"min":[-177.326599,-3.38541865,-60.6192513],"max":[175.37616,33.0643005,-2.72352672]},{"bufferView":8,"count":898,"type":"VEC3","componentType":5126},{"bufferView":9,"count":898,"type":"VEC4","componentType":5126},{"bufferView":10,"count":898,"type":"VEC2","componentType":5126},{"bufferView":11,"count":898,"type":"VEC2","componentType":5126},{"bufferView":12,"count":912,"type":"SCALAR","componentType":5123},{"bufferView":13,"count":353,"type":"VEC3","componentType":5126,"min":[31.9625206,-0.0137722883,-60.8132133],"max":[80.8430634,38.400692,-34.8577995]},{"bufferView":14,"count":353,"type":"VEC3","componentType":5126},{"bufferView":15,"count":353,"type":"VEC4","componentType":5126},{"bufferView":16,"count":353,"type":"VEC2","componentType":5126},{"bufferView":17,"count":353,"type":"VEC2","componentType":5126},{"bufferView":18,"count":648,"type":"SCALAR","componentType":5123},{"bufferView":19,"count":348,"type":"VEC3","componentType":5126,"min":[-164.250824,-38.7461243,-73.8387833],"max":[171.535187,-26.664875,73.0917816]},{"bufferView":20,"count":348,"type":"VEC3","componentType":5126},{"bufferView":21,"count":348,"type":"VEC4","componentType":5126},{"bufferView":22,"count":348,"type":"VEC2","componentType":5126},{"bufferView":23,"count":348,"type":"VEC2","componentType":5126}],"buffers":[{"uri":"SM_三人带贵妃榻_340cm.bin","byteLength":346120}],"bufferViews":[{"buffer":0,"byteLength":22044,"target":34963},{"buffer":0,"byteLength":48552,"byteOffset":22044,"target":34962},{"buffer":0,"byteLength":48552,"byteOffset":70596,"target":34962},{"buffer":0,"byteLength":64736,"byteOffset":119148,"target":34962},{"buffer":0,"byteLength":32368,"byteOffset":183884,"target":34962},{"buffer":0,"byteLength":32368,"byteOffset":216252,"target":34962},{"buffer":0,"byteLength":4836,"byteOffset":248620,"target":34963},{"buffer":0,"byteLength":10776,"byteOffset":253456,"target":34962},{"buffer":0,"byteLength":10776,"byteOffset":264232,"target":34962},{"buffer":0,"byteLength":14368,"byteOffset":275008,"target":34962},{"buffer":0,"byteLength":7184,"byteOffset":289376,"target":34962},{"buffer":0,"byteLength":7184,"byteOffset":296560,"target":34962},{"buffer":0,"byteLength":1824,"byteOffset":303744,"target":34963},{"buffer":0,"byteLength":4236,"byteOffset":305568,"target":34962},{"buffer":0,"byteLength":4236,"byteOffset":309804,"target":34962},{"buffer":0,"byteLength":5648,"byteOffset":314040,"target":34962},{"buffer":0,"byteLength":2824,"byteOffset":319688,"target":34962},{"buffer":0,"byteLength":2824,"byteOffset":322512,"target":34962},{"buffer":0,"byteLength":1296,"byteOffset":325336,"target":34963},{"buffer":0,"byteLength":4176,"byteOffset":326632,"target":34962},{"buffer":0,"byteLength":4176,"byteOffset":330808,"target":34962},{"buffer":0,"byteLength":5568,"byteOffset":334984,"target":34962},{"buffer":0,"byteLength":2784,"byteOffset":340552,"target":34962},{"buffer":0,"byteLength":2784,"byteOffset":343336,"target":34962}],"images":[{"uri":"MI_布料02_Inst_2_BaseColor.jpg"},{"uri":"MI_BZ_RS_Inst_SM_三人带贵妃榻_340cm_BaseColor.jpg"},{"uri":"MI_SE_sofa01_BaseColor.jpg"},{"uri":"MI_JapanWood01_BaseColor.jpg"}],"materials":[{"name":"MI_布料02_Inst_2","pbrMetallicRoughness":{"baseColorTexture":{"index":0},"metallicFactor":0}},{"name":"MI_BZ_RS_Inst_SM_三人带贵妃榻_340cm","pbrMetallicRoughness":{"baseColorTexture":{"index":1,"texCoord":1},"metallicFactor":0,"roughnessFactor":0}},{"name":"MI_SE_sofa01","pbrMetallicRoughness":{"baseColorTexture":{"index":2},"metallicFactor":0,"roughnessFactor":0.799102724}},{"name":"MI_JapanWood01","pbrMetallicRoughness":{"baseColorTexture":{"index":3},"metallicFactor":0,"roughnessFactor":0.300543785}}],"meshes":[{"name":"SM_三人带贵妃榻_340cm","primitives":[{"attributes":{"POSITION":1,"NORMAL":2,"TANGENT":3,"TEXCOORD_0":4,"TEXCOORD_1":5},"indices":0,"material":0},{"attributes":{"POSITION":7,"NORMAL":8,"TANGENT":9,"TEXCOORD_0":10,"TEXCOORD_1":11},"indices":6,"material":1},{"attributes":{"POSITION":13,"NORMAL":14,"TANGENT":15,"TEXCOORD_0":16,"TEXCOORD_1":17},"indices":12,"material":2},{"attributes":{"POSITION":19,"NORMAL":20,"TANGENT":21,"TEXCOORD_0":22,"TEXCOORD_1":23},"indices":18,"material":3}]}],"nodes":[{"name":"SM_三人带贵妃榻_340cm_StaticMeshComponent0","mesh":0}],"samplers":[{"name":"MI_布料02_Inst_2_BaseColor","minFilter":9987,"magFilter":9729},{"name":"MI_BZ_RS_Inst_SM_三人带贵妃榻_340cm_BaseColor","minFilter":9987,"magFilter":9729},{"name":"MI_SE_sofa01_BaseColor","minFilter":9987,"magFilter":9729},{"name":"MI_JapanWood01_BaseColor","minFilter":9987,"magFilter":9729}],"scenes":[{"name":"Main","nodes":[0]}],"textures":[{"name":"MI_布料02_Inst_2_BaseColor","sampler":0,"source":0},{"name":"MI_BZ_RS_Inst_SM_三人带贵妃榻_340cm_BaseColor","sampler":1,"source":1},{"name":"MI_SE_sofa01_BaseColor","sampler":2,"source":2},{"name":"MI_JapanWood01_BaseColor","sampler":3,"source":3}]}