{"asset":{"version":"2.0","generator":"Unreal Engine 4.27.0 glTF Exporter 1.0.6"},"scene":0,"accessors":[{"bufferView":0,"count":11202,"type":"SCALAR","componentType":5123},{"bufferView":1,"count":3998,"type":"VEC3","componentType":5126,"min":[-137.630783,-27.1576519,-45.8942833],"max":[140.088943,36.9902191,45.7974167]},{"bufferView":2,"count":3998,"type":"VEC3","componentType":5126},{"bufferView":3,"count":3998,"type":"VEC4","componentType":5126},{"bufferView":4,"count":3998,"type":"VEC2","componentType":5126},{"bufferView":5,"count":3998,"type":"VEC2","componentType":5126},{"bufferView":6,"count":1278,"type":"SCALAR","componentType":5123},{"bufferView":7,"count":454,"type":"VEC3","componentType":5126,"min":[69.7557144,-0.0297765005,-24.5623875],"max":[118.616768,38.6701012,1.63178444]},{"bufferView":8,"count":454,"type":"VEC3","componentType":5126},{"bufferView":9,"count":454,"type":"VEC4","componentType":5126},{"bufferView":10,"count":454,"type":"VEC2","componentType":5126},{"bufferView":11,"count":454,"type":"VEC2","componentType":5126},{"bufferView":12,"count":2184,"type":"SCALAR","componentType":5123},{"bufferView":13,"count":750,"type":"VEC3","componentType":5126,"min":[-139.820938,-3.5502758,-24.5445061],"max":[97.8212357,33.6323738,33.4354057]},{"bufferView":14,"count":750,"type":"VEC3","componentType":5126},{"bufferView":15,"count":750,"type":"VEC4","componentType":5126},{"bufferView":16,"count":750,"type":"VEC2","componentType":5126},{"bufferView":17,"count":750,"type":"VEC2","componentType":5126},{"bufferView":18,"count":336,"type":"SCALAR","componentType":5121},{"bufferView":19,"count":176,"type":"VEC3","componentType":5126,"min":[-126.597908,-38.6896591,-37.8340034],"max":[135.355392,-26.6889668,36.522419]},{"bufferView":20,"count":176,"type":"VEC3","componentType":5126},{"bufferView":21,"count":176,"type":"VEC4","componentType":5126},{"bufferView":22,"count":176,"type":"VEC2","componentType":5126},{"bufferView":23,"count":176,"type":"VEC2","componentType":5126}],"buffers":[{"uri":"SM_三人沙发_240cm.bin","byteLength":330832}],"bufferViews":[{"buffer":0,"byteLength":22404,"target":34963},{"buffer":0,"byteLength":47976,"byteOffset":22404,"target":34962},{"buffer":0,"byteLength":47976,"byteOffset":70380,"target":34962},{"buffer":0,"byteLength":63968,"byteOffset":118356,"target":34962},{"buffer":0,"byteLength":31984,"byteOffset":182324,"target":34962},{"buffer":0,"byteLength":31984,"byteOffset":214308,"target":34962},{"buffer":0,"byteLength":2556,"byteOffset":246292,"target":34963},{"buffer":0,"byteLength":5448,"byteOffset":248848,"target":34962},{"buffer":0,"byteLength":5448,"byteOffset":254296,"target":34962},{"buffer":0,"byteLength":7264,"byteOffset":259744,"target":34962},{"buffer":0,"byteLength":3632,"byteOffset":267008,"target":34962},{"buffer":0,"byteLength":3632,"byteOffset":270640,"target":34962},{"buffer":0,"byteLength":4368,"byteOffset":274272,"target":34963},{"buffer":0,"byteLength":9000,"byteOffset":278640,"target":34962},{"buffer":0,"byteLength":9000,"byteOffset":287640,"target":34962},{"buffer":0,"byteLength":12000,"byteOffset":296640,"target":34962},{"buffer":0,"byteLength":6000,"byteOffset":308640,"target":34962},{"buffer":0,"byteLength":6000,"byteOffset":314640,"target":34962},{"buffer":0,"byteLength":336,"byteOffset":320640,"target":34963},{"buffer":0,"byteLength":2112,"byteOffset":320976,"target":34962},{"buffer":0,"byteLength":2112,"byteOffset":323088,"target":34962},{"buffer":0,"byteLength":2816,"byteOffset":325200,"target":34962},{"buffer":0,"byteLength":1408,"byteOffset":328016,"target":34962},{"buffer":0,"byteLength":1408,"byteOffset":329424,"target":34962}],"images":[{"uri":"MI_布料02_Inst_2_BaseColor.jpg"},{"uri":"MI_SE_sofa01_BaseColor.jpg"},{"uri":"MI_BZ_RS_Inst_SM_三人沙发_240cm_BaseColor.jpg"},{"uri":"MI_JapanWood01_BaseColor.jpg"}],"materials":[{"name":"MI_布料02_Inst_2","pbrMetallicRoughness":{"baseColorTexture":{"index":0},"metallicFactor":0}},{"name":"MI_SE_sofa01","pbrMetallicRoughness":{"baseColorTexture":{"index":1},"metallicFactor":0,"roughnessFactor":0.799102724}},{"name":"MI_BZ_RS_Inst_SM_三人沙发_240cm","pbrMetallicRoughness":{"baseColorTexture":{"index":2,"texCoord":1},"metallicFactor":0,"roughnessFactor":0}},{"name":"MI_JapanWood01","pbrMetallicRoughness":{"baseColorTexture":{"index":3},"metallicFactor":0,"roughnessFactor":0.300543785}}],"meshes":[{"name":"SM_三人沙发_240cm","primitives":[{"attributes":{"POSITION":1,"NORMAL":2,"TANGENT":3,"TEXCOORD_0":4,"TEXCOORD_1":5},"indices":0,"material":0},{"attributes":{"POSITION":7,"NORMAL":8,"TANGENT":9,"TEXCOORD_0":10,"TEXCOORD_1":11},"indices":6,"material":1},{"attributes":{"POSITION":13,"NORMAL":14,"TANGENT":15,"TEXCOORD_0":16,"TEXCOORD_1":17},"indices":12,"material":2},{"attributes":{"POSITION":19,"NORMAL":20,"TANGENT":21,"TEXCOORD_0":22,"TEXCOORD_1":23},"indices":18,"material":3}]}],"nodes":[{"name":"SM_三人沙发_240cm_StaticMeshComponent0","mesh":0}],"samplers":[{"name":"MI_布料02_Inst_2_BaseColor","minFilter":9987,"magFilter":9729},{"name":"MI_SE_sofa01_BaseColor","minFilter":9987,"magFilter":9729},{"name":"MI_BZ_RS_Inst_SM_三人沙发_240cm_BaseColor","minFilter":9987,"magFilter":9729},{"name":"MI_JapanWood01_BaseColor","minFilter":9987,"magFilter":9729}],"scenes":[{"name":"Main","nodes":[0]}],"textures":[{"name":"MI_布料02_Inst_2_BaseColor","sampler":0,"source":0},{"name":"MI_SE_sofa01_BaseColor","sampler":1,"source":1},{"name":"MI_BZ_RS_Inst_SM_三人沙发_240cm_BaseColor","sampler":2,"source":2},{"name":"MI_JapanWood01_BaseColor","sampler":3,"source":3}]}