{"asset":{"version":"2.0","generator":"Unreal Engine 4.27.0 glTF Exporter 1.0.6"},"scene":0,"accessors":[{"bufferView":0,"count":10260,"type":"SCALAR","componentType":5123},{"bufferView":1,"count":3629,"type":"VEC3","componentType":5126,"min":[-86.0102692,-27.1810646,-46.01511],"max":[95.1554184,36.7251282,45.6446075]},{"bufferView":2,"count":3629,"type":"VEC3","componentType":5126},{"bufferView":3,"count":3629,"type":"VEC4","componentType":5126},{"bufferView":4,"count":3629,"type":"VEC2","componentType":5126},{"bufferView":5,"count":3629,"type":"VEC2","componentType":5126},{"bufferView":6,"count":1614,"type":"SCALAR","componentType":5123},{"bufferView":7,"count":523,"type":"VEC3","componentType":5126,"min":[32.7131157,-0.0597334765,-24.5377846],"max":[81.5735245,38.5824547,1.1496501]},{"bufferView":8,"count":523,"type":"VEC3","componentType":5126},{"bufferView":9,"count":523,"type":"VEC4","componentType":5126},{"bufferView":10,"count":523,"type":"VEC2","componentType":5126},{"bufferView":11,"count":523,"type":"VEC2","componentType":5126},{"bufferView":12,"count":1716,"type":"SCALAR","componentType":5123},{"bufferView":13,"count":593,"type":"VEC3","componentType":5126,"min":[-94.6106796,-3.34891033,-24.6306648],"max":[-44.2261162,33.1546936,27.8807793]},{"bufferView":14,"count":593,"type":"VEC3","componentType":5126},{"bufferView":15,"count":593,"type":"VEC4","componentType":5126},{"bufferView":16,"count":593,"type":"VEC2","componentType":5126},{"bufferView":17,"count":593,"type":"VEC2","componentType":5126},{"bufferView":18,"count":1008,"type":"SCALAR","componentType":5123},{"bufferView":19,"count":341,"type":"VEC3","componentType":5126,"min":[8.09911251,0.12042813,-14.777174],"max":[60.7391853,23.2403564,33.7971992]},{"bufferView":20,"count":341,"type":"VEC3","componentType":5126},{"bufferView":21,"count":341,"type":"VEC4","componentType":5126},{"bufferView":22,"count":341,"type":"VEC2","componentType":5126},{"bufferView":23,"count":341,"type":"VEC2","componentType":5126},{"bufferView":24,"count":402,"type":"SCALAR","componentType":5121},{"bufferView":25,"count":202,"type":"VEC3","componentType":5126,"min":[-73.8017273,-38.8141556,-37.7414894],"max":[82.3399963,-26.6139812,36.4170036]},{"bufferView":26,"count":202,"type":"VEC3","componentType":5126},{"bufferView":27,"count":202,"type":"VEC4","componentType":5126},{"bufferView":28,"count":202,"type":"VEC2","componentType":5126},{"bufferView":29,"count":202,"type":"VEC2","componentType":5126}],"buffers":[{"uri":"SM_双人沙发_160cm.bin","byteLength":325728}],"bufferViews":[{"buffer":0,"byteLength":20520,"target":34963},{"buffer":0,"byteLength":43548,"byteOffset":20520,"target":34962},{"buffer":0,"byteLength":43548,"byteOffset":64068,"target":34962},{"buffer":0,"byteLength":58064,"byteOffset":107616,"target":34962},{"buffer":0,"byteLength":29032,"byteOffset":165680,"target":34962},{"buffer":0,"byteLength":29032,"byteOffset":194712,"target":34962},{"buffer":0,"byteLength":3228,"byteOffset":223744,"target":34963},{"buffer":0,"byteLength":6276,"byteOffset":226972,"target":34962},{"buffer":0,"byteLength":6276,"byteOffset":233248,"target":34962},{"buffer":0,"byteLength":8368,"byteOffset":239524,"target":34962},{"buffer":0,"byteLength":4184,"byteOffset":247892,"target":34962},{"buffer":0,"byteLength":4184,"byteOffset":252076,"target":34962},{"buffer":0,"byteLength":3432,"byteOffset":256260,"target":34963},{"buffer":0,"byteLength":7116,"byteOffset":259692,"target":34962},{"buffer":0,"byteLength":7116,"byteOffset":266808,"target":34962},{"buffer":0,"byteLength":9488,"byteOffset":273924,"target":34962},{"buffer":0,"byteLength":4744,"byteOffset":283412,"target":34962},{"buffer":0,"byteLength":4744,"byteOffset":288156,"target":34962},{"buffer":0,"byteLength":2016,"byteOffset":292900,"target":34963},{"buffer":0,"byteLength":4092,"byteOffset":294916,"target":34962},{"buffer":0,"byteLength":4092,"byteOffset":299008,"target":34962},{"buffer":0,"byteLength":5456,"byteOffset":303100,"target":34962},{"buffer":0,"byteLength":2728,"byteOffset":308556,"target":34962},{"buffer":0,"byteLength":2728,"byteOffset":311284,"target":34962},{"buffer":0,"byteLength":402,"byteOffset":314012,"target":34963},{"buffer":0,"byteLength":2424,"byteOffset":314416,"target":34962},{"buffer":0,"byteLength":2424,"byteOffset":316840,"target":34962},{"buffer":0,"byteLength":3232,"byteOffset":319264,"target":34962},{"buffer":0,"byteLength":1616,"byteOffset":322496,"target":34962},{"buffer":0,"byteLength":1616,"byteOffset":324112,"target":34962}],"images":[{"uri":"MI_布料02_Inst_2_BaseColor.jpg"},{"uri":"MI_SE_sofa01_BaseColor.jpg"},{"uri":"MI_BZ_RS_Inst_SM_双人沙发_160cm_BaseColor.jpg"},{"uri":"MI_SE_sofa02_BaseColor.jpg"},{"uri":"MI_JapanWood01_BaseColor.jpg"}],"materials":[{"name":"MI_布料02_Inst_2","pbrMetallicRoughness":{"baseColorTexture":{"index":0},"metallicFactor":0}},{"name":"MI_SE_sofa01","pbrMetallicRoughness":{"baseColorTexture":{"index":1},"metallicFactor":0,"roughnessFactor":0.799102724}},{"name":"MI_BZ_RS_Inst_SM_双人沙发_160cm","pbrMetallicRoughness":{"baseColorTexture":{"index":2,"texCoord":1},"metallicFactor":0,"roughnessFactor":0}},{"name":"MI_SE_sofa02","pbrMetallicRoughness":{"baseColorTexture":{"index":3},"metallicFactor":0,"roughnessFactor":0.799102724}},{"name":"MI_JapanWood01","pbrMetallicRoughness":{"baseColorTexture":{"index":4},"metallicFactor":0,"roughnessFactor":0.300543785}}],"meshes":[{"name":"SM_双人沙发_160cm","primitives":[{"attributes":{"POSITION":1,"NORMAL":2,"TANGENT":3,"TEXCOORD_0":4,"TEXCOORD_1":5},"indices":0,"material":0},{"attributes":{"POSITION":7,"NORMAL":8,"TANGENT":9,"TEXCOORD_0":10,"TEXCOORD_1":11},"indices":6,"material":1},{"attributes":{"POSITION":13,"NORMAL":14,"TANGENT":15,"TEXCOORD_0":16,"TEXCOORD_1":17},"indices":12,"material":2},{"attributes":{"POSITION":19,"NORMAL":20,"TANGENT":21,"TEXCOORD_0":22,"TEXCOORD_1":23},"indices":18,"material":3},{"attributes":{"POSITION":25,"NORMAL":26,"TANGENT":27,"TEXCOORD_0":28,"TEXCOORD_1":29},"indices":24,"material":4}]}],"nodes":[{"name":"SM_双人沙发_160cm_StaticMeshComponent0","mesh":0}],"samplers":[{"name":"MI_布料02_Inst_2_BaseColor","minFilter":9987,"magFilter":9729},{"name":"MI_SE_sofa01_BaseColor","minFilter":9987,"magFilter":9729},{"name":"MI_BZ_RS_Inst_SM_双人沙发_160cm_BaseColor","minFilter":9987,"magFilter":9729},{"name":"MI_SE_sofa02_BaseColor","minFilter":9987,"magFilter":9729},{"name":"MI_JapanWood01_BaseColor","minFilter":9987,"magFilter":9729}],"scenes":[{"name":"Main","nodes":[0]}],"textures":[{"name":"MI_布料02_Inst_2_BaseColor","sampler":0,"source":0},{"name":"MI_SE_sofa01_BaseColor","sampler":1,"source":1},{"name":"MI_BZ_RS_Inst_SM_双人沙发_160cm_BaseColor","sampler":2,"source":2},{"name":"MI_SE_sofa02_BaseColor","sampler":3,"source":3},{"name":"MI_JapanWood01_BaseColor","sampler":4,"source":4}]}