{"asset":{"version":"2.0","generator":"Unreal Engine 4.27.0 glTF Exporter 1.0.6"},"scene":0,"accessors":[{"bufferView":0,"count":10587,"type":"SCALAR","componentType":5123},{"bufferView":1,"count":3805,"type":"VEC3","componentType":5126,"min":[-134.80397,-27.1541042,-81.5247574],"max":[137.506805,37.0894127,81.8638229]},{"bufferView":2,"count":3805,"type":"VEC3","componentType":5126},{"bufferView":3,"count":3805,"type":"VEC4","componentType":5126},{"bufferView":4,"count":3805,"type":"VEC2","componentType":5126},{"bufferView":5,"count":3805,"type":"VEC2","componentType":5126},{"bufferView":6,"count":2070,"type":"SCALAR","componentType":5123},{"bufferView":7,"count":757,"type":"VEC3","componentType":5126,"min":[-136.611588,-3.40089583,-60.8176613],"max":[134.724365,33.1860733,-8.10573101]},{"bufferView":8,"count":757,"type":"VEC3","componentType":5126},{"bufferView":9,"count":757,"type":"VEC4","componentType":5126},{"bufferView":10,"count":757,"type":"VEC2","componentType":5126},{"bufferView":11,"count":757,"type":"VEC2","componentType":5126},{"bufferView":12,"count":1026,"type":"SCALAR","componentType":5123},{"bufferView":13,"count":396,"type":"VEC3","componentType":5126,"min":[-9.21400452,-0.135922149,-60.5435562],"max":[39.4084473,38.5479202,-34.5307617]},{"bufferView":14,"count":396,"type":"VEC3","componentType":5126},{"bufferView":15,"count":396,"type":"VEC4","componentType":5126},{"bufferView":16,"count":396,"type":"VEC2","componentType":5126},{"bufferView":17,"count":396,"type":"VEC2","componentType":5126},{"bufferView":18,"count":642,"type":"SCALAR","componentType":5121},{"bufferView":19,"count":225,"type":"VEC3","componentType":5126,"min":[-34.53965,0.326858431,-50.53368],"max":[17.7619762,23.5537586,-2.51100707]},{"bufferView":20,"count":225,"type":"VEC3","componentType":5126},{"bufferView":21,"count":225,"type":"VEC4","componentType":5126},{"bufferView":22,"count":225,"type":"VEC2","componentType":5126},{"bufferView":23,"count":225,"type":"VEC2","componentType":5126},{"bufferView":24,"count":672,"type":"SCALAR","componentType":5123},{"bufferView":25,"count":352,"type":"VEC3","componentType":5126,"min":[-123.520607,-38.6874046,-73.8905716],"max":[131.060577,-26.6588097,73.0912857]},{"bufferView":26,"count":352,"type":"VEC3","componentType":5126},{"bufferView":27,"count":352,"type":"VEC4","componentType":5126},{"bufferView":28,"count":352,"type":"VEC2","componentType":5126},{"bufferView":29,"count":352,"type":"VEC2","componentType":5126}],"buffers":[{"uri":"SM_双人带贵妃榻_260cm.bin","byteLength":339316}],"bufferViews":[{"buffer":0,"byteLength":21174,"target":34963},{"buffer":0,"byteLength":45660,"byteOffset":21176,"target":34962},{"buffer":0,"byteLength":45660,"byteOffset":66836,"target":34962},{"buffer":0,"byteLength":60880,"byteOffset":112496,"target":34962},{"buffer":0,"byteLength":30440,"byteOffset":173376,"target":34962},{"buffer":0,"byteLength":30440,"byteOffset":203816,"target":34962},{"buffer":0,"byteLength":4140,"byteOffset":234256,"target":34963},{"buffer":0,"byteLength":9084,"byteOffset":238396,"target":34962},{"buffer":0,"byteLength":9084,"byteOffset":247480,"target":34962},{"buffer":0,"byteLength":12112,"byteOffset":256564,"target":34962},{"buffer":0,"byteLength":6056,"byteOffset":268676,"target":34962},{"buffer":0,"byteLength":6056,"byteOffset":274732,"target":34962},{"buffer":0,"byteLength":2052,"byteOffset":280788,"target":34963},{"buffer":0,"byteLength":4752,"byteOffset":282840,"target":34962},{"buffer":0,"byteLength":4752,"byteOffset":287592,"target":34962},{"buffer":0,"byteLength":6336,"byteOffset":292344,"target":34962},{"buffer":0,"byteLength":3168,"byteOffset":298680,"target":34962},{"buffer":0,"byteLength":3168,"byteOffset":301848,"target":34962},{"buffer":0,"byteLength":642,"byteOffset":305016,"target":34963},{"buffer":0,"byteLength":2700,"byteOffset":305660,"target":34962},{"buffer":0,"byteLength":2700,"byteOffset":308360,"target":34962},{"buffer":0,"byteLength":3600,"byteOffset":311060,"target":34962},{"buffer":0,"byteLength":1800,"byteOffset":314660,"target":34962},{"buffer":0,"byteLength":1800,"byteOffset":316460,"target":34962},{"buffer":0,"byteLength":1344,"byteOffset":318260,"target":34963},{"buffer":0,"byteLength":4224,"byteOffset":319604,"target":34962},{"buffer":0,"byteLength":4224,"byteOffset":323828,"target":34962},{"buffer":0,"byteLength":5632,"byteOffset":328052,"target":34962},{"buffer":0,"byteLength":2816,"byteOffset":333684,"target":34962},{"buffer":0,"byteLength":2816,"byteOffset":336500,"target":34962}],"images":[{"uri":"MI_布料02_Inst_2_BaseColor.jpg"},{"uri":"MI_BZ_RS_Inst_SM_双人带贵妃榻_260cm_BaseColor.jpg"},{"uri":"MI_SE_sofa01_BaseColor.jpg"},{"uri":"MI_SE_sofa02_BaseColor.jpg"},{"uri":"MI_JapanWood01_BaseColor.jpg"}],"materials":[{"name":"MI_布料02_Inst_2","pbrMetallicRoughness":{"baseColorTexture":{"index":0},"metallicFactor":0}},{"name":"MI_BZ_RS_Inst_SM_双人带贵妃榻_260cm","pbrMetallicRoughness":{"baseColorTexture":{"index":1,"texCoord":1},"metallicFactor":0,"roughnessFactor":0}},{"name":"MI_SE_sofa01","pbrMetallicRoughness":{"baseColorTexture":{"index":2},"metallicFactor":0,"roughnessFactor":0.799102724}},{"name":"MI_SE_sofa02","pbrMetallicRoughness":{"baseColorTexture":{"index":3},"metallicFactor":0,"roughnessFactor":0.799102724}},{"name":"MI_JapanWood01","pbrMetallicRoughness":{"baseColorTexture":{"index":4},"metallicFactor":0,"roughnessFactor":0.300543785}}],"meshes":[{"name":"SM_双人带贵妃榻_260cm","primitives":[{"attributes":{"POSITION":1,"NORMAL":2,"TANGENT":3,"TEXCOORD_0":4,"TEXCOORD_1":5},"indices":0,"material":0},{"attributes":{"POSITION":7,"NORMAL":8,"TANGENT":9,"TEXCOORD_0":10,"TEXCOORD_1":11},"indices":6,"material":1},{"attributes":{"POSITION":13,"NORMAL":14,"TANGENT":15,"TEXCOORD_0":16,"TEXCOORD_1":17},"indices":12,"material":2},{"attributes":{"POSITION":19,"NORMAL":20,"TANGENT":21,"TEXCOORD_0":22,"TEXCOORD_1":23},"indices":18,"material":3},{"attributes":{"POSITION":25,"NORMAL":26,"TANGENT":27,"TEXCOORD_0":28,"TEXCOORD_1":29},"indices":24,"material":4}]}],"nodes":[{"name":"SM_双人带贵妃榻_260cm_StaticMeshComponent0","mesh":0}],"samplers":[{"name":"MI_布料02_Inst_2_BaseColor","minFilter":9987,"magFilter":9729},{"name":"MI_BZ_RS_Inst_SM_双人带贵妃榻_260cm_BaseColor","minFilter":9987,"magFilter":9729},{"name":"MI_SE_sofa01_BaseColor","minFilter":9987,"magFilter":9729},{"name":"MI_SE_sofa02_BaseColor","minFilter":9987,"magFilter":9729},{"name":"MI_JapanWood01_BaseColor","minFilter":9987,"magFilter":9729}],"scenes":[{"name":"Main","nodes":[0]}],"textures":[{"name":"MI_布料02_Inst_2_BaseColor","sampler":0,"source":0},{"name":"MI_BZ_RS_Inst_SM_双人带贵妃榻_260cm_BaseColor","sampler":1,"source":1},{"name":"MI_SE_sofa01_BaseColor","sampler":2,"source":2},{"name":"MI_SE_sofa02_BaseColor","sampler":3,"source":3},{"name":"MI_JapanWood01_BaseColor","sampler":4,"source":4}]}