{"asset":{"version":"2.0","generator":"Unreal Engine 4.27.0 glTF Exporter 1.0.6"},"scene":0,"accessors":[{"bufferView":0,"count":11868,"type":"SCALAR","componentType":5123},{"bufferView":1,"count":4357,"type":"VEC3","componentType":5126,"min":[-175.110458,-27.1179485,-45.6337242],"max":[177.847763,37.0509796,45.7194328]},{"bufferView":2,"count":4357,"type":"VEC3","componentType":5126},{"bufferView":3,"count":4357,"type":"VEC4","componentType":5126},{"bufferView":4,"count":4357,"type":"VEC2","componentType":5126},{"bufferView":5,"count":4357,"type":"VEC2","componentType":5126},{"bufferView":6,"count":1038,"type":"SCALAR","componentType":5123},{"bufferView":7,"count":375,"type":"VEC3","componentType":5126,"min":[110.018623,-0.0514377058,-24.517437],"max":[159.041809,38.5327263,1.58722472]},{"bufferView":8,"count":375,"type":"VEC3","componentType":5126},{"bufferView":9,"count":375,"type":"VEC4","componentType":5126},{"bufferView":10,"count":375,"type":"VEC2","componentType":5126},{"bufferView":11,"count":375,"type":"VEC2","componentType":5126},{"bufferView":12,"count":1758,"type":"SCALAR","componentType":5123},{"bufferView":13,"count":616,"type":"VEC3","componentType":5126,"min":[-176.856461,-3.39578342,-24.8514481],"max":[138.182022,33.122715,33.4982834]},{"bufferView":14,"count":616,"type":"VEC3","componentType":5126},{"bufferView":15,"count":616,"type":"VEC4","componentType":5126},{"bufferView":16,"count":616,"type":"VEC2","componentType":5126},{"bufferView":17,"count":616,"type":"VEC2","componentType":5126},{"bufferView":18,"count":336,"type":"SCALAR","componentType":5121},{"bufferView":19,"count":176,"type":"VEC3","componentType":5126,"min":[-164.312714,-38.6878891,-37.7087784],"max":[172.03183,-26.7150364,36.4866638]},{"bufferView":20,"count":176,"type":"VEC3","componentType":5126},{"bufferView":21,"count":176,"type":"VEC4","componentType":5126},{"bufferView":22,"count":176,"type":"VEC2","componentType":5126},{"bufferView":23,"count":176,"type":"VEC2","componentType":5126}],"buffers":[{"uri":"SM_四人沙发_320cm.bin","byteLength":339008}],"bufferViews":[{"buffer":0,"byteLength":23736,"target":34963},{"buffer":0,"byteLength":52284,"byteOffset":23736,"target":34962},{"buffer":0,"byteLength":52284,"byteOffset":76020,"target":34962},{"buffer":0,"byteLength":69712,"byteOffset":128304,"target":34962},{"buffer":0,"byteLength":34856,"byteOffset":198016,"target":34962},{"buffer":0,"byteLength":34856,"byteOffset":232872,"target":34962},{"buffer":0,"byteLength":2076,"byteOffset":267728,"target":34963},{"buffer":0,"byteLength":4500,"byteOffset":269804,"target":34962},{"buffer":0,"byteLength":4500,"byteOffset":274304,"target":34962},{"buffer":0,"byteLength":6000,"byteOffset":278804,"target":34962},{"buffer":0,"byteLength":3000,"byteOffset":284804,"target":34962},{"buffer":0,"byteLength":3000,"byteOffset":287804,"target":34962},{"buffer":0,"byteLength":3516,"byteOffset":290804,"target":34963},{"buffer":0,"byteLength":7392,"byteOffset":294320,"target":34962},{"buffer":0,"byteLength":7392,"byteOffset":301712,"target":34962},{"buffer":0,"byteLength":9856,"byteOffset":309104,"target":34962},{"buffer":0,"byteLength":4928,"byteOffset":318960,"target":34962},{"buffer":0,"byteLength":4928,"byteOffset":323888,"target":34962},{"buffer":0,"byteLength":336,"byteOffset":328816,"target":34963},{"buffer":0,"byteLength":2112,"byteOffset":329152,"target":34962},{"buffer":0,"byteLength":2112,"byteOffset":331264,"target":34962},{"buffer":0,"byteLength":2816,"byteOffset":333376,"target":34962},{"buffer":0,"byteLength":1408,"byteOffset":336192,"target":34962},{"buffer":0,"byteLength":1408,"byteOffset":337600,"target":34962}],"images":[{"uri":"MI_布料02_Inst_2_BaseColor.jpg"},{"uri":"MI_SE_sofa01_BaseColor.jpg"},{"uri":"MI_BZ_RS_Inst_SM_四人沙发_320cm_BaseColor.jpg"},{"uri":"MI_JapanWood01_BaseColor.jpg"}],"materials":[{"name":"MI_布料02_Inst_2","pbrMetallicRoughness":{"baseColorTexture":{"index":0},"metallicFactor":0}},{"name":"MI_SE_sofa01","pbrMetallicRoughness":{"baseColorTexture":{"index":1},"metallicFactor":0,"roughnessFactor":0.799102724}},{"name":"MI_BZ_RS_Inst_SM_四人沙发_320cm","pbrMetallicRoughness":{"baseColorTexture":{"index":2,"texCoord":1},"metallicFactor":0,"roughnessFactor":0}},{"name":"MI_JapanWood01","pbrMetallicRoughness":{"baseColorTexture":{"index":3},"metallicFactor":0,"roughnessFactor":0.300543785}}],"meshes":[{"name":"SM_四人沙发_320cm","primitives":[{"attributes":{"POSITION":1,"NORMAL":2,"TANGENT":3,"TEXCOORD_0":4,"TEXCOORD_1":5},"indices":0,"material":0},{"attributes":{"POSITION":7,"NORMAL":8,"TANGENT":9,"TEXCOORD_0":10,"TEXCOORD_1":11},"indices":6,"material":1},{"attributes":{"POSITION":13,"NORMAL":14,"TANGENT":15,"TEXCOORD_0":16,"TEXCOORD_1":17},"indices":12,"material":2},{"attributes":{"POSITION":19,"NORMAL":20,"TANGENT":21,"TEXCOORD_0":22,"TEXCOORD_1":23},"indices":18,"material":3}]}],"nodes":[{"name":"SM_四人沙发_320cm_StaticMeshComponent0","mesh":0}],"samplers":[{"name":"MI_布料02_Inst_2_BaseColor","minFilter":9987,"magFilter":9729},{"name":"MI_SE_sofa01_BaseColor","minFilter":9987,"magFilter":9729},{"name":"MI_BZ_RS_Inst_SM_四人沙发_320cm_BaseColor","minFilter":9987,"magFilter":9729},{"name":"MI_JapanWood01_BaseColor","minFilter":9987,"magFilter":9729}],"scenes":[{"name":"Main","nodes":[0]}],"textures":[{"name":"MI_布料02_Inst_2_BaseColor","sampler":0,"source":0},{"name":"MI_SE_sofa01_BaseColor","sampler":1,"source":1},{"name":"MI_BZ_RS_Inst_SM_四人沙发_320cm_BaseColor","sampler":2,"source":2},{"name":"MI_JapanWood01_BaseColor","sampler":3,"source":3}]}